<?xml version="1.0" standalone="no"?>
<!DOCTYPE svg PUBLIC "-//W3C//DTD SVG 20010904//EN"
 "http://www.w3.org/TR/2001/REC-SVG-20010904/DTD/svg10.dtd">
<svg version="1.0" xmlns="http://www.w3.org/2000/svg"
 width="260.000000pt" height="260.000000pt" viewBox="0 0 260.000000 260.000000"
 preserveAspectRatio="xMidYMid meet">
<metadata>
Created by potrace 1.11, written by Peter Selinger 2001-2013
</metadata>
<g transform="translate(0.000000,260.000000) scale(0.100000,-0.100000)"
fill="#000000" stroke="none">
<path d="M1286 2543 c-4 -4 -21 -7 -90 -18 -47 -7 -133 -30 -201 -55 -314
-114 -559 -338 -706 -645 -48 -101 -93 -242 -103 -325 -4 -25 -10 -68 -14 -95
-12 -73 -6 -221 13 -333 9 -53 19 -100 21 -104 3 -5 7 -16 9 -25 21 -108 155
-370 226 -443 8 -8 36 -41 63 -73 95 -112 286 -243 458 -312 160 -64 279 -84
478 -81 85 2 165 6 176 9 12 3 39 8 60 12 143 22 395 140 504 235 19 16 39 30
44 30 5 0 7 3 3 6 -3 3 -25 -7 -49 -24 -113 -77 -241 -132 -389 -167 -88 -20
-334 -27 -429 -11 -119 20 -219 52 -334 107 -62 29 -66 34 -45 40 13 4 58 17
99 30 41 12 80 23 85 24 62 13 305 147 425 234 88 64 83 63 124 46 20 -9 41
-13 46 -10 5 3 11 1 15 -5 7 -12 35 -13 35 -2 0 5 -6 9 -12 10 -23 2 -42 7
-76 21 l-34 14 42 38 c29 26 56 41 93 49 68 14 217 65 287 97 69 33 180 104
180 117 0 5 -8 2 -18 -7 -10 -10 -23 -17 -29 -17 -6 0 -13 -3 -15 -8 -7 -17
-205 -102 -273 -117 -11 -2 -40 -9 -64 -15 -24 -6 -46 -8 -49 -6 -3 3 19 31
49 62 30 31 61 64 69 73 60 64 198 267 240 354 13 26 27 47 31 47 11 0 88
-157 81 -164 -3 -3 0 -6 6 -6 7 0 12 2 12 4 0 6 -30 76 -61 144 -27 60 -28 66
-15 95 25 55 60 213 43 197 -3 -3 -7 -23 -10 -46 -6 -39 -12 -58 -44 -132 -13
-29 -33 -36 -33 -11 0 9 -65 109 -96 148 -66 83 -171 204 -208 241 -53 51 -57
65 -18 56 15 -3 38 -8 52 -11 37 -8 105 -33 193 -72 43 -19 80 -33 83 -31 10
11 -196 101 -306 133 -83 25 -133 45 -150 62 -40 38 -245 183 -260 183 -5 0
-10 5 -10 10 0 6 -4 10 -9 10 -5 0 -36 16 -68 35 -86 51 -246 115 -347 140
-88 22 -89 22 -65 38 37 24 173 76 253 97 298 78 640 26 894 -136 29 -19 57
-34 62 -34 6 0 10 -3 10 -7 0 -5 13 -17 28 -27 l27 -20 -20 24 c-38 44 -172
137 -274 189 -55 28 -101 49 -101 45 0 -3 -6 -2 -12 4 -21 16 -134 51 -227 68
-74 14 -345 27 -355 17z m-191 -368 c62 -9 201 -54 280 -90 59 -27 223 -122
258 -149 32 -25 18 -29 -78 -22 -94 7 -293 8 -350 2 -132 -14 -172 -21 -260
-41 -55 -13 -138 -38 -185 -55 -122 -45 -117 -44 -122 -23 -3 10 -4 51 -2 91
4 113 61 213 148 259 67 35 190 46 311 28z m430 -309 c0 -5 -31 -26 -70 -46
-65 -33 -166 -94 -190 -112 -5 -5 -41 -32 -80 -60 -94 -70 -113 -87 -232 -203
-57 -55 -107 -101 -112 -103 -22 -7 -171 278 -171 328 0 15 200 108 289 135
84 25 280 63 346 67 91 6 220 2 220 -6z m215 -12 c27 -13 42 -25 144 -116 98
-89 234 -249 308 -364 l27 -41 -31 -59 c-33 -64 -123 -197 -171 -254 -30 -36
-197 -208 -240 -247 -36 -34 -72 -43 -175 -49 l-94 -6 -62 38 c-191 117 -423
329 -564 515 -10 13 -2 28 52 90 100 117 189 202 316 302 68 53 174 125 203
137 12 6 45 23 72 39 43 26 59 30 120 29 39 -1 81 -7 95 -14z m-1225 -44 c-3
-5 -1 -19 5 -31 21 -38 22 -67 3 -73 -10 -3 -31 -17 -47 -31 -46 -40 -56 -34
-32 18 8 18 23 53 35 80 11 26 25 47 31 47 6 0 8 -4 5 -10z m105 -265 c18 -33
58 -97 89 -143 95 -139 91 -120 39 -188 -24 -32 -69 -98 -98 -146 -61 -101
-63 -101 -131 -16 -76 97 -93 141 -94 243 0 82 3 96 32 155 27 54 119 168 128
158 2 -2 17 -30 35 -63z m528 -616 c45 -36 127 -95 182 -130 54 -35 98 -68 96
-74 -2 -5 -9 -9 -16 -7 -7 1 -51 5 -99 8 -92 6 -270 38 -300 54 -10 5 -21 7
-24 4 -7 -8 -203 71 -265 106 -45 26 -52 34 -46 53 11 37 79 169 118 231 l37
57 117 -118 c64 -65 154 -148 200 -184z m-655 -24 c46 -29 48 -31 42 -69 -3
-21 -12 -50 -19 -64 l-13 -25 -17 34 c-24 47 -56 131 -56 147 0 16 1 16 63
-23z m301 -146 c65 -22 128 -42 140 -43 11 -2 32 -6 46 -10 35 -8 77 -15 135
-21 28 -3 68 -8 90 -10 34 -4 276 -6 319 -3 18 2 76 -22 76 -31 0 -16 -256
-155 -352 -191 -153 -56 -329 -73 -425 -41 -134 46 -204 157 -198 314 3 74 10
91 34 83 9 -3 69 -24 135 -47z"/>
<path d="M2330 1100 c0 -5 5 -10 11 -10 5 0 7 5 4 10 -3 6 -8 10 -11 10 -2 0
-4 -4 -4 -10z"/>
<path d="M1855 570 c27 -12 43 -12 25 0 -8 5 -22 9 -30 9 -10 0 -8 -3 5 -9z"/>
</g>
</svg>
